<svg width="74" height="74" viewBox="0 0 74 74" fill="none" xmlns="http://www.w3.org/2000/svg">
<circle cx="37" cy="37" r="37" fill="#F2F6FF"/>
<path fill-rule="evenodd" clip-rule="evenodd" d="M38.3609 24.1667C38.153 24.9019 38.0417 25.6776 38.0417 26.4792C38.0417 31.1622 41.838 34.9584 46.5209 34.9584C47.3226 34.9584 48.0983 34.8472 48.8334 34.6392V44.2084C48.8334 46.7627 46.7627 48.8334 44.2084 48.8334H28.7917C26.2374 48.8334 24.1667 46.7627 24.1667 44.2084V28.7917C24.1667 26.2374 26.2374 24.1667 28.7917 24.1667H38.3609Z" fill="#FFCF5C"/>
<path d="M46.5209 30.3333C48.6495 30.3333 50.3751 28.6078 50.3751 26.4792C50.3751 24.3506 48.6495 22.625 46.5209 22.625C44.3923 22.625 42.6667 24.3506 42.6667 26.4792C42.6667 28.6078 44.3923 30.3333 46.5209 30.3333Z" fill="#133996"/>
</svg>
